PathFileType	4	(X/Y/Z)	W10_1_OpenSim.trc																																																																																																																						
DataRate	CameraRate	NumFrames	NumMarkers	Units	OrigDataRate	OrigDataStartFrame	OrigNumFrames																																																																																																																		
100	100	5	40	mm	100	2251	3000																																																																																																																		
Frame#	Time	R.ASIS			R.PSIS			S2			L.PSIS			L.ASIS			R.TH1			R.TH2			R.TH3			R.MKnee			R.Knee			R.SH1			R.SH2			R.SH3			R.SH4			R.Ankle			R.MAnkle			R.Heel			R.MT5			R.MT1			L.TH1			L.TH2			L.TH3			L.TH4			L.MKnee			L.Knee			L.SH1			L.SH2			L.SH3			L.Ankle			L.MAnkle			L.Heel			L.MT5			L.MT1			R.Acr			L.Acr			C7			T10			Clav			Sternum			R.Back		
		X1	Y1	Z1	X2	Y2	Z2	X3	Y3	Z3	X4	Y4	Z4	X5	Y5	Z5	X6	Y6	Z6	X7	Y7	Z7	X8	Y8	Z8	X9	Y9	Z9	X10	Y10	Z10	X11	Y11	Z11	X12	Y12	Z12	X13	Y13	Z13	X14	Y14	Z14	X15	Y15	Z15	X16	Y16	Z16	X17	Y17	Z17	X18	Y18	Z18	X19	Y19	Z19	X20	Y20	Z20	X21	Y21	Z21	X22	Y22	Z22	X23	Y23	Z23	X24	Y24	Z24	X25	Y25	Z25	X26	Y26	Z26	X27	Y27	Z27	X28	Y28	Z28	X29	Y29	Z29	X30	Y30	Z30	X31	Y31	Z31	X32	Y32	Z32	X33	Y33	Z33	X34	Y34	Z34	X35	Y35	Z35	X36	Y36	Z36	X37	Y37	Z37	X38	Y38	Z38	X39	Y39	Z39	X40	Y40	Z40
2251	22.5	1022.6758	1060.8723	-366.2518	824.7792	1066.6783	-449.6081	816.1124	1060.9905	-494.3637	814.2464	1065.672	-544.2651	985.2811	1057.1838	-659.8568	982.8178	727.4824	-355.4158	902.4895	730.5212	-336.9196	895.897	621.789	-355.199	899.8639	502.8553	-488.8373	907.6517	502.1931	-371.9828	891.4863	335.0007	-377.341	875.9854	226.5705	-402.2106	811.4135	343.8516	-360.4901	800.4416	232.017	-377.9629	789.4167	75.7908	-401.4039	828.7031	94.2935	-494.3538	731.0858	37.0034	-461.7348	901.8826	37.4591	-369.8823	953.4917	39.031	-456.8545	1055.8994	794.3284	-687.156	1092.5596	691.8101	-688.7284	978.6868	763.2638	-695.1812	1018.7333	660.7826	-689.78	1134.865	532.1086	-577.7745	1118.5952	544.6881	-689.9571	1127.6825	414.5487	-716.6224	1046.5488	415.6626	-709.8784	1047.6858	306.1769	-709.7483	1105.7693	102.3464	-728.1657	1138.4053	111.5266	-630.6525	1044.4482	59.9199	-671.064	1215.2484	54.3122	-746.1926	1254.9468	70.1155	-647.2327	999.783	1463.1205	-361.8852	916.6221	1438.6227	-678.257	900.2682	1496.4821	-512.246	859.7976	1172.2356	-494.2498	1033.3098	1397.6384	-535.8876	1059.1079	1254.7537	-523.2162	842.2507	1406.6836	-403.1731
2252	22.51	1022.8396	1059.5496	-366.9738	825.1375	1065.7716	-449.986	816.471	1060.0969	-494.757	814.6581	1064.7383	-544.6415	985.5414	1055.5043	-660.2744	980.3476	726.1707	-355.9672	900.0488	729.9076	-337.0098	892.4852	621.2571	-355.437	895.101	502.2878	-489.2111	902.7214	501.519	-372.3695	884.6945	334.4039	-377.5671	868.0813	226.0977	-402.338	804.7424	344.2003	-360.7369	792.4834	232.5002	-378.1537	779.6204	76.1583	-401.4772	819.0924	94.334	-494.4332	721.2286	37.4308	-461.7411	891.9236	37.3678	-369.7947	943.4879	38.926	-456.7696	1053.8253	790.926	-687.4755	1089.4408	688.1033	-688.4896	976.2963	760.4858	-695.3625	1015.4133	657.6866	-689.4501	1131.0115	528.7426	-577.0227	1115.1776	541.2725	-689.1274	1130.4585	413.001	-716.4422	1049.2944	409.4399	-709.3805	1056.5751	300.2077	-709.5625	1127.4999	99.35	-728.9062	1159.3425	110.0954	-631.4358	1068.6182	53.089	-672.0729	1239.5645	57.864	-747.1515	1278.2446	75.76	-648.1758	1000.268	1462.13	-362.9712	916.7553	1437.223	-679.1955	900.4573	1495.1808	-513.1921	859.9032	1171.0226	-494.8029	1033.5846	1396.4393	-536.9179	1059.4078	1253.5728	-524.0239	842.6378	1405.6152	-403.8683
2253	22.52	1023.0348	1058.168	-367.7735	825.5787	1064.6776	-450.5146	816.9275	1059.004	-495.3031	815.1844	1063.5978	-545.1637	985.9361	1053.7417	-660.7964	978.0509	724.8215	-356.5748	897.8315	729.2336	-337.2129	889.2859	620.6726	-355.7904	890.6108	501.6949	-489.6909	898.0338	500.8043	-372.8726	878.0519	333.7876	-377.8762	860.271	225.5816	-402.5136	798.2346	344.5699	-361.1029	784.6049	233.0286	-378.4442	769.8529	76.5796	-401.572	809.5345	94.3899	-494.5263	711.3968	37.9228	-461.7553	881.9873	37.2842	-369.7021	933.4857	38.8141	-456.6934	1051.92	787.2862	-687.8768	1086.3956	684.1185	-688.2675	974.064	757.5076	-695.6379	1012.1746	654.3813	-689.1822	1127.0204	525.1877	-576.2022	1111.7101	537.6746	-688.2954	1132.7033	411.4417	-716.1686	1051.7738	403.457	-708.694	1064.8959	294.772	-709.0979	1148.0239	97.2519	-729.097	1179.1143	109.6988	-631.8663	1091.7203	47.5858	-672.495	1262.156	62.3356	-747.858	1299.89	82.3198	-648.9261	1000.787	1461.0273	-364.1386	917.033	1435.7589	-680.2333	900.7204	1493.7828	-514.2379	860.049	1169.7063	-495.5043	1033.931	1395.1309	-538.0148	1059.7682	1252.2764	-524.9044	843.0599	1404.4613	-404.6917
2254	22.53	1023.2496	1056.7269	-368.6248	826.0763	1063.3845	-451.2209	817.4595	1057.701	-496.0285	815.798	1062.2451	-545.8608	986.4569	1051.9121	-661.4322	975.9383	723.4349	-357.2475	895.841	728.4881	-337.5531	886.32	620.0234	-356.2777	886.4252	501.0569	-490.2852	893.6156	500.0374	-373.4946	871.5895	333.1422	-378.2686	852.5708	225.0283	-402.7365	791.9075	344.9623	-361.5915	776.8293	233.6019	-378.838	760.1341	77.0589	-401.6841	800.0342	94.4708	-494.6336	701.5895	38.498	-461.7783	872.0747	37.2075	-369.6079	923.4888	38.7025	-456.6288	1050.3053	783.5323	-688.3468	1083.6051	680.0022	-688.0565	972.1255	754.4233	-696.0067	1009.197	650.9814	-688.9805	1123.1226	521.598	-575.3481	1108.3789	534.0255	-687.4813	1134.4456	409.8565	-715.8072	1053.9741	397.7905	-707.7897	1072.5205	289.8773	-708.3043	1166.9231	95.8874	-728.7158	1197.3823	110.1797	-631.8893	1113.3074	43.3088	-672.2096	1282.6331	67.3671	-748.2682	1319.5621	89.4489	-649.4842	1001.3413	1459.8041	-365.3934	917.4489	1434.2207	-681.3704	901.0535	1492.288	-515.3872	860.2413	1168.283	-496.3572	1034.348	1393.7048	-539.1744	1060.1821	1250.8516	-525.852	843.5166	1403.2216	-405.6382
2255	22.54	1023.4799	1055.225	-369.506	826.6078	1061.8962	-452.1282	818.0477	1056.1951	-496.956	816.4721	1060.6936	-546.7595	987.0935	1050.0272	-662.1942	974.0167	722.0096	-357.9937	894.0663	727.6631	-338.0531	883.6025	619.2973	-356.9118	882.5789	500.3483	-490.996	889.4964	499.2055	-374.2325	865.3357	332.4561	-378.7386	844.9957	224.452	-403.0071	785.7799	345.3813	-362.1934	769.1851	234.222	-379.324	750.4772	77.6028	-401.8022	790.5946	94.5944	-494.749	691.8013	39.1808	-461.8059	862.1829	37.1359	-369.5158	913.5037	38.6011	-456.5739	1049.0941	779.7965	-688.8614	1081.2578	675.9135	-687.8557	970.6099	751.3343	-696.4529	1006.6621	647.61	-688.8336	1119.5763	518.1394	-574.4969	1105.3778	530.4598	-686.6997	1135.749	408.2201	-715.3537	1055.8908	392.506	-706.635	1079.3311	285.505	-707.132	1183.787	95.0585	-727.7636	1213.823	111.3009	-631.4579	1132.9198	40.0878	-671.1252	1300.6344	72.5215	-748.3482	1336.9663	96.7185	-649.8475	1001.9296	1458.455	-366.7408	917.9932	1432.6003	-682.6067	901.4523	1490.7003	-516.641	860.4932	1166.7516	-497.3599	1034.8336	1392.1606	-540.3954	1060.6484	1249.2942	-526.8636	844.007	1401.8943	-406.703
